<svg width="24" height="12" viewBox="0 0 24 12" fill="none" xmlns="http://www.w3.org/2000/svg">
<path d="M18.5457 0.0275915L23.5606 4.94807C24.1465 5.5229 24.1465 6.45411 23.5606 7.02893L18.5223 11.9724C18.4848 12.0092 18.4262 12.0092 18.3887 11.9724L17.4607 11.0619C17.4232 11.0251 17.4232 10.9676 17.4607 10.9308L21.5804 6.89327C21.639 6.83579 21.5968 6.73692 21.5148 6.73692H0.0937366C0.0421817 6.73692 0 6.69554 0 6.64495V5.35735C0 5.30676 0.0421817 5.26538 0.0937366 5.26538H21.5383C21.6226 5.26538 21.6625 5.16651 21.6039 5.10902L17.4865 1.06917C17.449 1.03238 17.449 0.974899 17.4865 0.938111L18.4145 0.0275915C18.4496 -0.00919716 18.5106 -0.00919716 18.5457 0.0275915Z" fill="#A7A7A7"/>
</svg>
